<?xml version="1.0" ?>
<svg baseProfile="full" height="100%" version="1.1" viewBox="112.5 187.5 1384.375 1115.625" width="100%" xmlns="http://www.w3.org/2000/svg" xmlns:ev="http://www.w3.org/2001/xml-events" xmlns:xlink="http://www.w3.org/1999/xlink">
	<defs/>
	<path d="M 371.65625 449.371094 C 416.238281 466.488281 494.820312 453.820312 531.605469 437.257812 C 535.265625 452.089844 537.613281 456.636719 541.042969 474.429688 C 509.457031 460.949219 447.378906 475.648438 379.394531 493.175781 C 380.859375 483.507812 380.707031 463.433594 371.65625 449.371094 " style=" stroke:none;fill-rule:nonzero;fill:rgb(97.557068%,66.75415%,60.2005%);fill-opacity:1;"/>
	<path d="M 1232.089844 449.371094 C 1187.511719 466.488281 1108.929688 453.820312 1072.140625 437.257812 C 1068.480469 452.089844 1066.128906 456.636719 1062.699219 474.429688 C 1094.289062 460.949219 1156.371094 475.648438 1224.351562 493.175781 C 1222.890625 483.507812 1223.039062 463.433594 1232.089844 449.371094 " style=" stroke:none;fill-rule:nonzero;fill:rgb(97.557068%,66.75415%,60.2005%);fill-opacity:1;"/>
	<path d="M 1442.699219 447.734375 C 1442.699219 467.835938 1436.851562 489.101562 1422.46875 501.683594 C 1406.289062 515.839844 1398.539062 513.09375 1389.921875 519.015625 C 1380 525.835938 1378.949219 536.050781 1355.640625 540.441406 C 1337.921875 543.78125 1326.429688 535.75 1315 535.65625 C 1302.96875 535.5625 1293.628906 544.132812 1270.710938 537.96875 C 1249.460938 532.253906 1249.910156 515.050781 1242.011719 509.851562 C 1231.988281 503.253906 1211.871094 495.597656 1211.871094 472.195312 C 1211.871094 440.5625 1229.101562 437.503906 1241.53125 418.75 C 1249.929688 406.070312 1239.449219 393.839844 1261.699219 374.261719 C 1280.910156 357.359375 1292.148438 364.191406 1306.339844 357.648438 C 1320.761719 350.988281 1319.769531 341.519531 1346.398438 341.519531 C 1366.859375 341.519531 1375.960938 352.878906 1386.359375 355.378906 C 1397.75 358.128906 1414.671875 354.519531 1425.359375 360.679688 C 1447.960938 373.710938 1442.699219 416.734375 1442.699219 447.734375 " style=" stroke:none;fill-rule:nonzero;fill:rgb(96.052551%,59.837341%,47.685242%);fill-opacity:1;"/>
	<path d="M 1311.148438 377.441406 C 1317.320312 383.109375 1324.179688 409.304688 1315.050781 413.523438 C 1307.351562 417.089844 1298.289062 419.941406 1292.949219 427.195312 C 1283.308594 440.28125 1273.199219 438.664062 1263.871094 429.871094 C 1251.449219 418.171875 1254.46875 397.011719 1267.898438 382.410156 C 1281.320312 367.820312 1301.71875 368.761719 1311.148438 377.441406 " style=" stroke:none;fill-rule:nonzero;fill:rgb(90.478516%,52.97699%,40.905762%);fill-opacity:1;"/>
	<path d="M 1392.089844 395.730469 C 1388.378906 403.242188 1370.910156 419.238281 1362.25 414.140625 C 1357.238281 411.195312 1348.960938 407.3125 1338.5 405.09375 C 1322.601562 401.71875 1318.648438 375.640625 1324.460938 364.210938 C 1332.199219 349 1353.359375 345.960938 1371.140625 354.738281 C 1388.921875 363.511719 1397.769531 384.230469 1392.089844 395.730469 " style=" stroke:none;fill-rule:nonzero;fill:rgb(90.478516%,52.97699%,40.905762%);fill-opacity:1;"/>
	<path d="M 1256.648438 436.757812 C 1264.789062 438.75 1279.808594 446.796875 1280.378906 464.605469 C 1280.648438 473.023438 1276.050781 480.058594 1268.828125 486.992188 C 1257.300781 498.0625 1255.800781 506.589844 1243.378906 503.398438 C 1226.851562 499.152344 1219.210938 479.460938 1223.828125 460.542969 C 1228.460938 441.628906 1244.191406 433.714844 1256.648438 436.757812 " style=" stroke:none;fill-rule:nonzero;fill:rgb(90.478516%,52.97699%,40.905762%);fill-opacity:1;"/>
	<path d="M 1264.589844 520.296875 C 1259.820312 505.710938 1273.71875 489.535156 1283.511719 490.828125 C 1293.339844 492.128906 1301.261719 493.476562 1311.148438 489.886719 C 1326.171875 484.429688 1334.058594 490.753906 1335.128906 503.53125 C 1336.539062 520.539062 1320.441406 534.21875 1301.050781 536.054688 C 1281.671875 537.890625 1268.570312 532.484375 1264.589844 520.296875 " style=" stroke:none;fill-rule:nonzero;fill:rgb(90.478516%,52.97699%,40.905762%);fill-opacity:1;"/>
	<path d="M 1393.21875 473.285156 C 1410.269531 481.519531 1408.78125 505.847656 1399.261719 508.480469 C 1391.21875 510.707031 1381.460938 514.15625 1376.03125 523.160156 C 1367.769531 536.84375 1358.550781 538.300781 1349.699219 529.027344 C 1337.921875 516.683594 1341.839844 495.925781 1355.769531 482.316406 C 1369.699219 468.707031 1381.679688 467.707031 1393.21875 473.285156 " style=" stroke:none;fill-rule:nonzero;fill:rgb(90.478516%,52.97699%,40.905762%);fill-opacity:1;"/>
	<path d="M 1347.648438 422.890625 C 1353.339844 429.046875 1355.421875 441.894531 1354.769531 451.75 C 1353.929688 464.730469 1344.621094 469.039062 1336.53125 474.796875 C 1323.511719 484.0625 1304.328125 486.808594 1295.730469 477.289062 C 1284.300781 464.621094 1288.800781 443.980469 1303.109375 430.765625 C 1317.410156 417.550781 1338.949219 413.472656 1347.648438 422.890625 " style=" stroke:none;fill-rule:nonzero;fill:rgb(90.478516%,52.97699%,40.905762%);fill-opacity:1;"/>
	<path d="M 1430.359375 445.65625 C 1430.621094 454.035156 1426.078125 468.875 1416.339844 470.558594 C 1407.050781 472.167969 1393.140625 463.890625 1383.660156 460.925781 C 1368.410156 456.148438 1364.410156 448.742188 1366.800781 436.144531 C 1369.980469 419.378906 1384.578125 410.746094 1403.488281 415.390625 C 1421.53125 419.820312 1429.921875 431.945312 1430.359375 445.65625 " style=" stroke:none;fill-rule:nonzero;fill:rgb(90.478516%,52.97699%,40.905762%);fill-opacity:1;"/>
	<path d="M 1306.53125 375.128906 C 1312.699219 380.800781 1317.871094 404.128906 1308.738281 408.351562 C 1301.039062 411.914062 1293.691406 414.054688 1288.621094 423.46875 C 1280.910156 437.78125 1268.578125 436.351562 1259.25 427.5625 C 1246.820312 415.859375 1249.851562 394.691406 1263.269531 380.101562 C 1276.699219 365.511719 1297.089844 366.449219 1306.53125 375.128906 " style=" stroke:none;fill-rule:nonzero;fill:rgb(97.399902%,64.640808%,54.159546%);fill-opacity:1;"/>
	<path d="M 1387.46875 393.421875 C 1383.761719 400.933594 1367.871094 414.890625 1359.210938 409.792969 C 1354.199219 406.847656 1344.921875 402.09375 1334.460938 399.871094 C 1318.558594 396.5 1314.03125 373.328125 1319.839844 361.898438 C 1327.570312 346.691406 1348.738281 343.648438 1366.519531 352.421875 C 1384.289062 361.199219 1393.148438 381.921875 1387.46875 393.421875 " style=" stroke:none;fill-rule:nonzero;fill:rgb(97.399902%,64.640808%,54.159546%);fill-opacity:1;"/>
	<path d="M 1252.019531 434.445312 C 1260.171875 436.4375 1273.21875 443.117188 1273.789062 460.929688 C 1274.058594 469.34375 1269.738281 477.109375 1262.519531 484.039062 C 1250.988281 495.109375 1251.179688 504.277344 1238.761719 501.085938 C 1222.230469 496.84375 1214.589844 477.148438 1219.210938 458.230469 C 1223.839844 439.316406 1239.570312 431.402344 1252.019531 434.445312 " style=" stroke:none;fill-rule:nonzero;fill:rgb(97.399902%,64.640808%,54.159546%);fill-opacity:1;"/>
	<path d="M 1259.96875 517.988281 C 1255.199219 503.398438 1269.101562 487.222656 1278.890625 488.519531 C 1288.710938 489.820312 1296.449219 492.832031 1306.339844 489.242188 C 1321.359375 483.785156 1329.441406 488.441406 1330.5 501.222656 C 1331.910156 518.226562 1315.820312 531.90625 1296.429688 533.742188 C 1277.039062 535.578125 1263.949219 530.175781 1259.96875 517.988281 " style=" stroke:none;fill-rule:nonzero;fill:rgb(97.399902%,64.640808%,54.159546%);fill-opacity:1;"/>
	<path d="M 1388.988281 469.941406 C 1406.03125 478.175781 1404.550781 502.503906 1395.03125 505.136719 C 1386.980469 507.363281 1377.230469 510.816406 1371.789062 519.820312 C 1363.53125 533.503906 1354.320312 534.957031 1345.460938 525.683594 C 1333.679688 513.339844 1337.609375 492.582031 1351.539062 478.972656 C 1365.460938 465.363281 1377.441406 464.363281 1388.988281 469.941406 " style=" stroke:none;fill-rule:nonzero;fill:rgb(97.399902%,64.640808%,54.159546%);fill-opacity:1;"/>
	<path d="M 1343.03125 420.578125 C 1348.710938 426.734375 1347.839844 439.828125 1347.199219 449.683594 C 1346.351562 462.664062 1339.988281 466.730469 1331.898438 472.484375 C 1318.878906 481.753906 1299.699219 484.496094 1291.109375 474.976562 C 1279.679688 462.308594 1284.179688 441.671875 1298.488281 428.457031 C 1312.789062 415.242188 1334.328125 411.160156 1343.03125 420.578125 " style=" stroke:none;fill-rule:nonzero;fill:rgb(97.399902%,64.640808%,54.159546%);fill-opacity:1;"/>
	<path d="M 1423.339844 445.039062 C 1423.609375 453.417969 1419.058594 468.257812 1409.328125 469.941406 C 1400.039062 471.550781 1386.121094 463.273438 1376.648438 460.308594 C 1361.398438 455.53125 1357.390625 448.125 1359.78125 435.527344 C 1362.96875 418.761719 1377.558594 410.128906 1396.46875 414.773438 C 1414.519531 419.203125 1422.910156 431.328125 1423.339844 445.039062 " style=" stroke:none;fill-rule:nonzero;fill:rgb(97.399902%,64.640808%,54.159546%);fill-opacity:1;"/>
	<path d="M 1290.308594 380.679688 C 1291.21875 383.410156 1288.628906 389.78125 1283.738281 393.140625 C 1279.609375 395.980469 1275.140625 400.085938 1272.261719 405.769531 C 1267.78125 414.609375 1262.910156 417.675781 1259.738281 414.628906 C 1255.511719 410.570312 1257.878906 394.601562 1266.25 385.511719 C 1274.609375 376.410156 1289.011719 376.78125 1290.308594 380.679688 " style=" stroke:none;fill-rule:nonzero;fill:rgb(98.306274%,76.693726%,70.56427%);fill-opacity:1;"/>
	<path d="M 1347.078125 353.960938 C 1347.988281 356.691406 1345.898438 362.539062 1341.011719 365.898438 C 1336.878906 368.738281 1337.160156 371.980469 1334.28125 377.660156 C 1329.800781 386.511719 1324.929688 389.570312 1321.75 386.519531 C 1317.53125 382.46875 1319.898438 366.5 1328.261719 357.410156 C 1336.628906 348.308594 1345.78125 350.058594 1347.078125 353.960938 " style=" stroke:none;fill-rule:nonzero;fill:rgb(98.306274%,76.693726%,70.56427%);fill-opacity:1;"/>
	<path d="M 1245.960938 442.652344 C 1249.550781 443.527344 1256.351562 448.726562 1247.410156 457.960938 C 1242.570312 462.964844 1239.839844 468.617188 1240.039062 476.019531 C 1240.328125 486.667969 1235.828125 491.726562 1230.378906 490.28125 C 1223.128906 488.355469 1220.988281 474.667969 1224.410156 460.699219 C 1227.820312 446.726562 1240.488281 441.3125 1245.960938 442.652344 " style=" stroke:none;fill-rule:nonzero;fill:rgb(98.306274%,76.693726%,70.56427%);fill-opacity:1;"/>
	<path d="M 1308.75 493.207031 C 1312.359375 492.46875 1327.429688 504.378906 1303.550781 507.558594 C 1296.648438 508.476562 1285.640625 509.859375 1281.019531 515.644531 C 1274.371094 523.972656 1265.839844 521.253906 1264.648438 515.742188 C 1262.398438 505.34375 1268.601562 498.492188 1281.019531 495.710938 C 1295.050781 492.566406 1293.261719 496.386719 1308.75 493.207031 " style=" stroke:none;fill-rule:nonzero;fill:rgb(98.306274%,76.693726%,70.56427%);fill-opacity:1;"/>
	<path d="M 1317.089844 426.761719 C 1320.140625 428.007812 1325.351562 433.84375 1315.78125 441.921875 C 1310.589844 446.296875 1307.199219 451.539062 1306.109375 458.8125 C 1304.558594 469.277344 1299.679688 473.742188 1295.050781 471.734375 C 1288.878906 469.0625 1289.300781 455.425781 1294.730469 442.105469 C 1300.171875 428.789062 1312.421875 424.855469 1317.089844 426.761719 " style=" stroke:none;fill-rule:nonzero;fill:rgb(98.306274%,76.693726%,70.56427%);fill-opacity:1;"/>
	<path d="M 1370.320312 475.488281 C 1373.378906 476.734375 1378.578125 482.566406 1369.011719 490.644531 C 1363.828125 495.019531 1360.429688 500.265625 1359.351562 507.535156 C 1357.789062 518 1352.910156 522.46875 1348.28125 520.460938 C 1342.121094 517.789062 1342.539062 504.148438 1347.96875 490.832031 C 1353.398438 477.511719 1365.648438 473.582031 1370.320312 475.488281 " style=" stroke:none;fill-rule:nonzero;fill:rgb(98.306274%,76.693726%,70.56427%);fill-opacity:1;"/>
	<path d="M 1390.199219 419.46875 C 1393.46875 419.851562 1396.019531 423.863281 1384.28125 428.207031 C 1377.910156 430.558594 1372.519531 431.992188 1369.039062 438.460938 C 1364.019531 447.773438 1362.25 444.015625 1362.25 438.96875 C 1362.25 436.585938 1369.398438 417.011719 1390.199219 419.46875 " style=" stroke:none;fill-rule:nonzero;fill:rgb(98.306274%,76.693726%,70.56427%);fill-opacity:1;"/>
	<path d="M 1481.429688 383.300781 C 1484.851562 358.640625 1501 324.96875 1487.140625 276.328125 C 1469.808594 215.5 1383.441406 139.5 1251.800781 222.421875 C 1221.878906 241.261719 1159.308594 308.789062 1006.140625 314.75 C 1028.121094 350.289062 1066.679688 433.777344 1072.300781 475.085938 C 1080.960938 439.550781 1114.980469 384.070312 1147.460938 363.871094 C 1156.761719 358.089844 1237.398438 291.539062 1273.769531 265 C 1366.71875 197.160156 1443.199219 238.53125 1443.199219 297.5 C 1443.199219 359.5 1383.25 351.398438 1367.949219 351.671875 C 1353.480469 351.929688 1344.179688 362.660156 1361.070312 366.378906 C 1373.589844 369.128906 1381.769531 367.710938 1389.949219 371.070312 C 1393.691406 372.601562 1394.421875 376.511719 1390.621094 378.039062 C 1384.871094 380.359375 1371.011719 388.351562 1364.839844 393.699219 C 1357.890625 399.730469 1355.710938 411.765625 1369.320312 405.636719 C 1372.488281 404.203125 1391.371094 397.371094 1401.160156 399.089844 C 1406.089844 399.960938 1409.421875 402.671875 1408.691406 404.957031 C 1402.140625 425.464844 1379.839844 436.992188 1375.351562 439.050781 C 1366.648438 443.027344 1361.390625 451.765625 1380.25 451.195312 C 1399.128906 450.625 1411.871094 439.53125 1418.339844 433.390625 C 1423.03125 428.9375 1428.019531 431.5 1423.308594 442.117188 C 1415.648438 459.363281 1405.351562 464.378906 1395.859375 472.015625 C 1384.03125 481.542969 1389.128906 487.371094 1399.03125 485.089844 C 1401.199219 484.589844 1420.75 477.714844 1430.960938 464.039062 C 1433.359375 460.824219 1436.578125 467.613281 1431.738281 474.78125 C 1422.390625 488.609375 1411.800781 488.648438 1404.671875 503.96875 C 1399.058594 515.992188 1406.011719 527.78125 1418.558594 513.644531 C 1423.539062 508.035156 1451.46875 494.257812 1465.609375 468.191406 C 1490.941406 421.53125 1476.269531 420.4375 1481.429688 383.300781 " style=" stroke:none;fill-rule:nonzero;fill:rgb(95.399475%,39.317322%,35.028076%);fill-opacity:1;"/>
	<path d="M 1471.558594 383.5 C 1477.808594 331.75 1489.140625 331.671875 1474.890625 277.320312 C 1454.800781 200.699219 1351.140625 169 1259.46875 232 C 1187.960938 281.140625 1135.808594 337.671875 1017.769531 335.128906 C 1013.601562 327.359375 1009.660156 320.441406 1006.140625 314.75 C 1159.308594 308.789062 1221.878906 241.261719 1251.800781 222.421875 C 1383.441406 139.5 1469.808594 215.5 1487.140625 276.328125 C 1501 324.96875 1484.851562 358.640625 1481.429688 383.300781 C 1476.269531 420.4375 1490.941406 421.53125 1465.609375 468.191406 C 1481.558594 419.253906 1467.859375 414.066406 1471.558594 383.5 " style=" stroke:none;fill-rule:nonzero;fill:rgb(96.018982%,46.942139%,45.491028%);fill-opacity:1;"/>
	<path d="M 1130.808594 346 C 1198.808594 312 1244.460938 254.011719 1313.648438 226.5 C 1353.261719 210.75 1410.308594 211.25 1434.46875 249 C 1445.148438 265.671875 1445.769531 279.679688 1443.199219 297.5 C 1443.199219 238.53125 1366.71875 197.160156 1273.769531 265 C 1237.398438 291.539062 1162.769531 354.828125 1148.640625 365.828125 C 1118.46875 389.328125 1080.960938 439.550781 1072.300781 475.085938 C 1068.5 447.152344 1049.640625 399.929688 1031.03125 361.289062 C 1065.460938 362.398438 1099.679688 361.558594 1130.808594 346 " style=" stroke:none;fill-rule:nonzero;fill:rgb(92.38739%,32.521057%,28.82843%);fill-opacity:1;"/>
	<path d="M 161.140625 447.734375 C 161.140625 467.835938 166.988281 489.101562 181.367188 501.683594 C 197.546875 515.839844 205.300781 513.09375 213.917969 519.015625 C 223.839844 525.835938 224.890625 536.050781 248.199219 540.441406 C 265.917969 543.78125 277.410156 535.75 288.835938 535.65625 C 300.871094 535.5625 310.214844 544.132812 333.132812 537.96875 C 354.378906 532.253906 353.933594 515.050781 361.832031 509.851562 C 371.847656 503.253906 391.972656 495.597656 391.972656 472.195312 C 391.972656 440.5625 374.738281 437.503906 362.3125 418.75 C 353.910156 406.070312 364.390625 393.839844 342.136719 374.261719 C 322.925781 357.359375 311.6875 364.191406 297.503906 357.648438 C 283.078125 350.988281 284.070312 341.519531 257.441406 341.519531 C 236.976562 341.519531 227.878906 352.878906 217.476562 355.378906 C 206.089844 358.128906 189.164062 354.519531 178.476562 360.679688 C 155.878906 373.710938 161.140625 416.734375 161.140625 447.734375 " style=" stroke:none;fill-rule:nonzero;fill:rgb(96.052551%,59.837341%,47.685242%);fill-opacity:1;"/>
	<path d="M 292.6875 377.441406 C 286.519531 383.109375 279.664062 409.304688 288.789062 413.523438 C 296.492188 417.089844 305.550781 419.941406 310.890625 427.195312 C 320.53125 440.28125 330.636719 438.664062 339.972656 429.871094 C 352.394531 418.171875 349.367188 397.011719 335.945312 382.410156 C 322.519531 367.820312 302.125 368.761719 292.6875 377.441406 " style=" stroke:none;fill-rule:nonzero;fill:rgb(90.478516%,52.97699%,40.905762%);fill-opacity:1;"/>
	<path d="M 211.746094 395.730469 C 215.457031 403.242188 232.925781 419.238281 241.59375 414.140625 C 246.601562 411.195312 254.878906 407.3125 265.339844 405.09375 C 281.242188 401.71875 285.191406 375.640625 279.378906 364.210938 C 271.644531 349 250.476562 345.960938 232.699219 354.738281 C 214.921875 363.511719 206.066406 384.230469 211.746094 395.730469 " style=" stroke:none;fill-rule:nonzero;fill:rgb(90.478516%,52.97699%,40.905762%);fill-opacity:1;"/>
	<path d="M 347.191406 436.757812 C 339.050781 438.75 324.027344 446.796875 323.457031 464.605469 C 323.1875 473.023438 327.792969 480.058594 335.015625 486.992188 C 346.542969 498.0625 348.039062 506.589844 360.457031 503.398438 C 376.988281 499.152344 384.632812 479.460938 380.007812 460.542969 C 375.382812 441.628906 359.648438 433.714844 347.191406 436.757812 " style=" stroke:none;fill-rule:nonzero;fill:rgb(90.478516%,52.97699%,40.905762%);fill-opacity:1;"/>
	<path d="M 339.246094 520.296875 C 344.015625 505.710938 330.117188 489.535156 320.324219 490.828125 C 310.503906 492.128906 302.574219 493.476562 292.691406 489.886719 C 277.667969 484.429688 269.773438 490.753906 268.714844 503.53125 C 267.304688 520.539062 283.398438 534.21875 302.785156 536.054688 C 322.175781 537.890625 335.265625 532.484375 339.246094 520.296875 " style=" stroke:none;fill-rule:nonzero;fill:rgb(90.478516%,52.97699%,40.905762%);fill-opacity:1;"/>
	<path d="M 210.613281 473.285156 C 193.570312 481.519531 195.058594 505.847656 204.578125 508.480469 C 212.621094 510.707031 222.378906 514.15625 227.8125 523.160156 C 236.074219 536.84375 245.285156 538.300781 254.140625 529.027344 C 265.921875 516.683594 261.996094 495.925781 248.066406 482.316406 C 234.140625 468.707031 222.160156 467.707031 210.613281 473.285156 " style=" stroke:none;fill-rule:nonzero;fill:rgb(90.478516%,52.97699%,40.905762%);fill-opacity:1;"/>
	<path d="M 256.191406 422.890625 C 250.503906 429.046875 248.425781 441.894531 249.066406 451.75 C 249.910156 464.730469 259.222656 469.039062 267.3125 474.796875 C 280.335938 484.0625 299.515625 486.808594 308.105469 477.289062 C 319.539062 464.621094 315.035156 443.980469 300.730469 430.765625 C 286.429688 417.550781 264.890625 413.472656 256.191406 422.890625 " style=" stroke:none;fill-rule:nonzero;fill:rgb(90.478516%,52.97699%,40.905762%);fill-opacity:1;"/>
	<path d="M 173.484375 445.65625 C 173.21875 454.035156 177.765625 468.875 187.496094 470.558594 C 196.789062 472.167969 210.699219 463.890625 220.175781 460.925781 C 235.429688 456.148438 239.433594 448.742188 237.042969 436.144531 C 233.855469 419.378906 219.261719 410.746094 200.351562 415.390625 C 182.304688 419.820312 173.917969 431.945312 173.484375 445.65625 " style=" stroke:none;fill-rule:nonzero;fill:rgb(90.478516%,52.97699%,40.905762%);fill-opacity:1;"/>
	<path d="M 297.308594 375.128906 C 291.140625 380.800781 285.96875 404.128906 295.09375 408.351562 C 302.800781 411.914062 310.148438 414.054688 315.222656 423.46875 C 322.929688 437.78125 335.257812 436.351562 344.59375 427.5625 C 357.015625 415.859375 353.988281 394.691406 340.566406 380.101562 C 327.144531 365.511719 306.746094 366.449219 297.308594 375.128906 " style=" stroke:none;fill-rule:nonzero;fill:rgb(97.399902%,64.640808%,54.159546%);fill-opacity:1;"/>
	<path d="M 216.367188 393.421875 C 220.078125 400.933594 235.96875 414.890625 244.632812 409.792969 C 249.644531 406.847656 258.921875 402.09375 269.382812 399.871094 C 285.285156 396.5 289.8125 373.328125 284 361.898438 C 276.265625 346.691406 255.101562 343.648438 237.324219 352.421875 C 219.546875 361.199219 210.691406 381.921875 216.367188 393.421875 " style=" stroke:none;fill-rule:nonzero;fill:rgb(97.399902%,64.640808%,54.159546%);fill-opacity:1;"/>
	<path d="M 351.816406 434.445312 C 343.675781 436.4375 330.621094 443.117188 330.050781 460.929688 C 329.78125 469.34375 334.097656 477.109375 341.320312 484.039062 C 352.847656 495.109375 352.660156 504.277344 365.082031 501.085938 C 381.609375 496.84375 389.253906 477.148438 384.628906 458.230469 C 380.003906 439.316406 364.269531 431.402344 351.816406 434.445312 " style=" stroke:none;fill-rule:nonzero;fill:rgb(97.399902%,64.640808%,54.159546%);fill-opacity:1;"/>
	<path d="M 343.871094 517.988281 C 348.636719 503.398438 334.738281 487.222656 324.949219 488.519531 C 315.125 489.820312 307.386719 492.832031 297.503906 489.242188 C 282.480469 483.785156 274.398438 488.441406 273.335938 501.222656 C 271.925781 518.226562 288.023438 531.90625 307.410156 533.742188 C 326.796875 535.578125 339.890625 530.175781 343.871094 517.988281 " style=" stroke:none;fill-rule:nonzero;fill:rgb(97.399902%,64.640808%,54.159546%);fill-opacity:1;"/>
	<path d="M 214.851562 469.941406 C 197.804688 478.175781 199.292969 502.503906 208.8125 505.136719 C 216.855469 507.363281 226.613281 510.816406 232.050781 519.820312 C 240.308594 533.503906 249.519531 534.957031 258.375 525.683594 C 270.160156 513.339844 266.230469 492.582031 252.304688 478.972656 C 238.375 465.363281 226.398438 464.363281 214.851562 469.941406 " style=" stroke:none;fill-rule:nonzero;fill:rgb(97.399902%,64.640808%,54.159546%);fill-opacity:1;"/>
	<path d="M 260.8125 420.578125 C 255.125 426.734375 256.003906 439.828125 256.644531 449.683594 C 257.488281 462.664062 263.847656 466.730469 271.933594 472.484375 C 284.957031 481.753906 304.136719 484.496094 312.726562 474.976562 C 324.164062 462.308594 319.65625 441.671875 305.355469 428.457031 C 291.050781 415.242188 269.511719 411.160156 260.8125 420.578125 " style=" stroke:none;fill-rule:nonzero;fill:rgb(97.399902%,64.640808%,54.159546%);fill-opacity:1;"/>
	<path d="M 180.496094 445.039062 C 180.234375 453.417969 184.777344 468.257812 194.511719 469.941406 C 203.804688 471.550781 217.714844 463.273438 227.191406 460.308594 C 242.441406 455.53125 246.449219 448.125 244.054688 435.527344 C 240.871094 418.761719 226.277344 410.128906 207.367188 414.773438 C 189.320312 419.203125 180.933594 431.328125 180.496094 445.039062 " style=" stroke:none;fill-rule:nonzero;fill:rgb(97.399902%,64.640808%,54.159546%);fill-opacity:1;"/>
	<path d="M 313.527344 380.679688 C 312.617188 383.410156 315.203125 389.78125 320.097656 393.140625 C 324.226562 395.980469 328.695312 400.085938 331.574219 405.769531 C 336.058594 414.609375 340.929688 417.675781 344.105469 414.628906 C 348.328125 410.570312 345.957031 394.601562 337.59375 385.511719 C 329.226562 376.410156 314.828125 376.78125 313.527344 380.679688 " style=" stroke:none;fill-rule:nonzero;fill:rgb(98.306274%,76.693726%,70.56427%);fill-opacity:1;"/>
	<path d="M 256.761719 353.960938 C 255.851562 356.691406 257.9375 362.539062 262.828125 365.898438 C 266.957031 368.738281 266.679688 371.980469 269.558594 377.660156 C 274.039062 386.511719 278.914062 389.570312 282.085938 386.519531 C 286.3125 382.46875 283.9375 366.5 275.574219 357.410156 C 267.210938 348.308594 258.058594 350.058594 256.761719 353.960938 " style=" stroke:none;fill-rule:nonzero;fill:rgb(98.306274%,76.693726%,70.56427%);fill-opacity:1;"/>
	<path d="M 357.875 442.652344 C 354.292969 443.527344 347.488281 448.726562 356.429688 457.960938 C 361.273438 462.964844 363.996094 468.617188 363.796875 476.019531 C 363.511719 486.667969 368.007812 491.726562 373.457031 490.28125 C 380.714844 488.355469 382.847656 474.667969 379.433594 460.699219 C 376.015625 446.726562 363.351562 441.3125 357.875 442.652344 " style=" stroke:none;fill-rule:nonzero;fill:rgb(98.306274%,76.693726%,70.56427%);fill-opacity:1;"/>
	<path d="M 295.085938 493.207031 C 291.476562 492.46875 276.40625 504.378906 300.289062 507.558594 C 307.1875 508.476562 318.203125 509.859375 322.820312 515.644531 C 329.464844 523.972656 338 521.253906 339.191406 515.742188 C 341.441406 505.34375 335.238281 498.492188 322.820312 495.710938 C 308.785156 492.566406 310.582031 496.386719 295.085938 493.207031 " style=" stroke:none;fill-rule:nonzero;fill:rgb(98.306274%,76.693726%,70.56427%);fill-opacity:1;"/>
	<path d="M 286.75 426.761719 C 283.695312 428.007812 278.492188 433.84375 288.0625 441.921875 C 293.246094 446.296875 296.644531 451.539062 297.726562 458.8125 C 299.28125 469.277344 304.160156 473.742188 308.792969 471.734375 C 314.957031 469.0625 314.539062 455.425781 309.105469 442.105469 C 303.671875 428.789062 291.425781 424.855469 286.75 426.761719 " style=" stroke:none;fill-rule:nonzero;fill:rgb(98.306274%,76.693726%,70.56427%);fill-opacity:1;"/>
	<path d="M 233.515625 475.488281 C 230.460938 476.734375 225.261719 482.566406 234.828125 490.644531 C 240.011719 495.019531 243.410156 500.265625 244.488281 507.535156 C 246.046875 518 250.929688 522.46875 255.558594 520.460938 C 261.722656 517.789062 261.304688 504.148438 255.871094 490.832031 C 250.4375 477.511719 238.1875 473.582031 233.515625 475.488281 " style=" stroke:none;fill-rule:nonzero;fill:rgb(98.306274%,76.693726%,70.56427%);fill-opacity:1;"/>
	<path d="M 213.640625 419.46875 C 210.367188 419.851562 207.820312 423.863281 219.5625 428.207031 C 225.925781 430.558594 231.316406 431.992188 234.804688 438.460938 C 239.824219 447.773438 241.59375 444.015625 241.59375 438.96875 C 241.59375 436.585938 234.441406 417.011719 213.640625 419.46875 " style=" stroke:none;fill-rule:nonzero;fill:rgb(98.306274%,76.693726%,70.56427%);fill-opacity:1;"/>
	<path d="M 122.375 383.300781 C 118.953125 358.640625 102.808594 324.96875 116.667969 276.328125 C 134 215.5 220.367188 139.5 352.011719 222.421875 C 381.921875 241.261719 444.5 308.789062 597.667969 314.75 C 575.683594 350.289062 537.121094 433.777344 531.511719 475.085938 C 522.84375 439.550781 488.828125 384.070312 456.351562 363.871094 C 447.046875 358.089844 366.40625 291.539062 330.039062 265 C 237.085938 197.160156 160.609375 238.53125 160.609375 297.5 C 160.609375 359.5 220.554688 351.398438 235.851562 351.671875 C 250.324219 351.929688 259.625 362.660156 242.742188 366.378906 C 230.21875 369.128906 222.039062 367.710938 213.851562 371.070312 C 210.121094 372.601562 209.386719 376.511719 213.183594 378.039062 C 218.9375 380.359375 232.796875 388.351562 238.96875 393.699219 C 245.914062 399.730469 248.09375 411.765625 234.488281 405.636719 C 231.3125 404.203125 212.441406 397.371094 202.640625 399.089844 C 197.710938 399.960938 194.390625 402.671875 195.117188 404.957031 C 201.664062 425.464844 223.964844 436.992188 228.457031 439.050781 C 237.15625 443.027344 242.417969 451.765625 223.554688 451.195312 C 204.679688 450.625 191.941406 439.53125 185.46875 433.390625 C 180.78125 428.9375 175.785156 431.5 180.496094 442.117188 C 188.152344 459.363281 198.457031 464.378906 207.941406 472.015625 C 219.777344 481.542969 214.675781 487.371094 204.773438 485.089844 C 202.605469 484.589844 183.058594 477.714844 172.84375 464.039062 C 170.441406 460.824219 167.222656 467.613281 172.066406 474.78125 C 181.410156 488.609375 192.003906 488.648438 199.140625 503.96875 C 204.742188 515.992188 197.800781 527.78125 185.246094 513.644531 C 180.269531 508.035156 152.339844 494.257812 138.191406 468.191406 C 112.867188 421.53125 127.53125 420.4375 122.375 383.300781 " style=" stroke:none;fill-rule:nonzero;fill:rgb(95.399475%,39.317322%,35.028076%);fill-opacity:1;"/>
	<path d="M 132.25 383.5 C 126 331.75 114.667969 331.671875 128.917969 277.320312 C 149.007812 200.699219 252.667969 169 344.332031 232 C 415.839844 281.140625 468 337.671875 586.039062 335.128906 C 590.203125 327.359375 594.148438 320.441406 597.667969 314.75 C 444.5 308.789062 381.921875 241.261719 352.011719 222.421875 C 220.367188 139.5 134 215.5 116.667969 276.328125 C 102.808594 324.96875 118.953125 358.640625 122.375 383.300781 C 127.53125 420.4375 112.867188 421.53125 138.191406 468.191406 C 122.25 419.253906 135.941406 414.066406 132.25 383.5 " style=" stroke:none;fill-rule:nonzero;fill:rgb(96.018982%,46.942139%,45.491028%);fill-opacity:1;"/>
	<path d="M 473 346 C 405 312 359.347656 254.011719 290.152344 226.5 C 250.542969 210.75 193.5 211.25 169.332031 249 C 158.660156 265.671875 158.035156 279.679688 160.609375 297.5 C 160.609375 238.53125 237.085938 197.160156 330.039062 265 C 366.40625 291.539062 441.035156 354.828125 455.167969 365.828125 C 485.339844 389.328125 522.84375 439.550781 531.511719 475.085938 C 535.304688 447.152344 554.167969 399.929688 572.78125 361.289062 C 538.351562 362.398438 504.125 361.558594 473 346 " style=" stroke:none;fill-rule:nonzero;fill:rgb(92.38739%,32.521057%,28.82843%);fill-opacity:1;"/>
	<path d="M 886.582031 761 C 874.046875 781.78125 864.527344 798.304688 851.226562 810.496094 C 837.925781 822.6875 820.589844 807.277344 801.921875 816.5 C 783.25 807.277344 765.914062 822.6875 752.613281 810.496094 C 739.3125 798.304688 729.792969 781.78125 717.257812 761 C 686.128906 709.382812 658.773438 707.160156 668.738281 772.25 C 672.203125 794.894531 705.71875 814.542969 702.339844 830.722656 C 695.140625 865.171875 729.324219 919.734375 730.871094 939.890625 C 731.425781 947.050781 726.484375 1024.980469 726.484375 1095.871094 C 726.484375 1136.210938 733.519531 1158.539062 744.53125 1186.121094 C 760.5 1226.109375 779.109375 1223.398438 771.226562 1253.398438 C 785.972656 1253.398438 778.363281 1247.71875 801.988281 1247.71875 C 825.613281 1247.71875 818.007812 1253.398438 832.75 1253.398438 C 824.871094 1223.398438 844.496094 1226.109375 860.460938 1186.121094 C 871.476562 1158.539062 878.511719 1136.210938 878.511719 1095.871094 C 878.511719 1024.980469 873.570312 947.050781 874.121094 939.890625 C 875.671875 919.734375 909.851562 865.171875 902.65625 830.722656 C 899.277344 814.542969 931.636719 794.894531 935.101562 772.25 C 945.066406 707.160156 917.710938 709.382812 886.582031 761 " style=" stroke:none;fill-rule:nonzero;fill:rgb(76.783752%,30.717468%,26.704407%);fill-opacity:1;"/>
	<path d="M 918.382812 740.355469 C 919.503906 740.355469 920.601562 740.507812 921.675781 740.808594 C 928.1875 742.660156 931.925781 749.738281 931.925781 760.230469 C 931.925781 764.40625 931.378906 778.636719 912.527344 802.605469 C 902.054688 815.925781 889.242188 824 892.6875 828.917969 C 899.214844 838.230469 901.796875 849.890625 899.769531 860.910156 C 897.917969 870.980469 881.613281 875.871094 874.429688 880.746094 C 871.539062 882.703125 867.535156 887.445312 873.171875 897.199219 C 881.507812 911.617188 877.789062 929.351562 863.917969 941.324219 C 862.332031 942.691406 861.476562 944.292969 861.503906 945.835938 C 861.539062 947.992188 863.277344 949.835938 864.726562 951.003906 C 870.214844 955.421875 873.242188 964.359375 872.441406 973.769531 C 871.757812 981.835938 868.410156 984.820312 863.492188 987.5625 C 862.007812 988.390625 860.421875 990.425781 860.265625 992.714844 C 860.09375 995.261719 861.6875 997.867188 864.867188 1000.261719 C 869.773438 1003.929688 872.609375 1009.460938 872.652344 1015.410156 C 872.695312 1021.839844 869.558594 1022.050781 863.808594 1026.488281 C 861.71875 1028.101562 859.25 1030.640625 859.363281 1033.539062 C 859.445312 1035.710938 860.96875 1037.878906 863.648438 1039.640625 C 868.410156 1042.761719 871.363281 1049.558594 871.355469 1057.378906 C 871.347656 1066.769531 867.269531 1070.410156 860.453125 1074.859375 C 858.574219 1076.089844 856.683594 1078.640625 856.910156 1080.601562 C 857.140625 1082.570312 859.578125 1083.851562 861.582031 1084.578125 C 868.152344 1086.960938 873.140625 1094.109375 873.714844 1101.960938 C 874.292969 1109.859375 870.554688 1116.578125 863.460938 1120.398438 C 862.1875 1121.078125 860.617188 1122.25 860.335938 1123.949219 C 860.011719 1125.898438 861.320312 1128.519531 864.117188 1131.53125 C 868.777344 1136.539062 870.808594 1142.960938 869.695312 1149.160156 C 868.601562 1155.238281 864.683594 1160.261719 858.667969 1163.28125 C 854.363281 1165.441406 854.914062 1168.359375 856.171875 1172.949219 C 856.28125 1173.339844 856.386719 1173.730469 856.484375 1174.101562 C 861.753906 1194.429688 854.328125 1202.511719 841.386719 1212.851562 C 838.882812 1214.851562 836.726562 1216.578125 835.085938 1218.050781 C 825.078125 1227.019531 823.753906 1237.269531 824.863281 1250.910156 C 826.359375 1269.351562 833.347656 1277.988281 836.328125 1285.628906 C 836.566406 1286.230469 836.777344 1286.769531 836.953125 1287.230469 C 838.273438 1290.679688 840.503906 1292.578125 842.921875 1292.320312 C 845.605469 1292.03125 848.734375 1288.96875 849.6875 1282.789062 C 849.988281 1280.839844 849.761719 1277.339844 849.5 1273.28125 C 848.753906 1261.648438 847.625 1253.308594 857.285156 1243.410156 C 860.230469 1240.378906 863.253906 1237.359375 866.175781 1234.429688 C 890.332031 1210.238281 898.914062 1196.628906 906.773438 1152.890625 C 914.535156 1109.679688 912.378906 1055.871094 910.644531 1004.269531 C 909.355469 965.878906 908.242188 936.1875 911.542969 921.800781 C 913.066406 915.152344 914.761719 909.203125 916.558594 902.902344 C 919.722656 891.816406 934.4375 867.6875 941.554688 850.75 C 979.308594 760.90625 975.453125 735.574219 965.5625 690.007812 C 964.605469 685.59375 960.699219 656.300781 976.84375 630.058594 C 1029.988281 543.652344 1078.179688 511.363281 1078.488281 416.238281 C 1078.628906 374.53125 1066.019531 352.828125 1019.851562 315.25 C 961.769531 267.988281 884.28125 253.578125 801.921875 253.578125 C 719.558594 253.578125 642.070312 267.988281 583.988281 315.25 C 537.816406 352.828125 525.210938 374.53125 525.347656 416.238281 C 525.65625 511.363281 573.847656 543.652344 626.996094 630.058594 C 643.136719 656.300781 639.496094 685.660156 638.277344 690.007812 C 624.625 738.5625 623.765625 770.242188 658.046875 838.425781 C 666.300781 854.835938 685.273438 891.816406 688.4375 902.902344 C 690.230469 909.203125 691.929688 915.152344 693.453125 921.800781 C 696.753906 936.1875 695.640625 965.878906 694.351562 1004.269531 C 692.617188 1055.871094 690.460938 1109.679688 698.222656 1152.890625 C 706.078125 1196.628906 713.644531 1210.238281 737.804688 1234.429688 C 740.726562 1237.359375 743.746094 1240.378906 746.691406 1243.410156 C 756.355469 1253.308594 755.226562 1261.648438 754.476562 1273.28125 C 754.21875 1277.339844 753.992188 1280.839844 754.289062 1282.789062 C 755.242188 1288.96875 758.375 1292.03125 761.054688 1292.320312 C 763.464844 1292.578125 765.703125 1290.679688 767.027344 1287.230469 C 767.203125 1286.769531 767.410156 1286.230469 767.648438 1285.628906 C 770.632812 1277.988281 777.617188 1269.351562 779.117188 1250.910156 C 780.226562 1237.269531 778.902344 1227.019531 768.894531 1218.050781 C 767.253906 1216.578125 765.09375 1214.851562 762.59375 1212.851562 C 749.648438 1202.511719 743.242188 1194.429688 748.511719 1174.101562 C 748.609375 1173.730469 748.714844 1173.339844 748.824219 1172.949219 C 750.078125 1168.359375 750.632812 1165.441406 746.328125 1163.28125 C 740.308594 1160.261719 736.394531 1155.238281 735.300781 1149.160156 C 734.183594 1142.960938 736.21875 1136.539062 740.878906 1131.53125 C 743.675781 1128.519531 744.984375 1125.898438 744.660156 1123.949219 C 744.378906 1122.25 742.804688 1121.078125 741.535156 1120.398438 C 734.4375 1116.578125 730.703125 1109.859375 731.28125 1101.960938 C 731.855469 1094.109375 736.84375 1086.960938 743.410156 1084.578125 C 745.417969 1083.851562 747.855469 1082.570312 748.082031 1080.601562 C 748.3125 1078.640625 746.421875 1076.089844 744.539062 1074.859375 C 737.722656 1070.410156 733.648438 1066.769531 733.640625 1057.378906 C 733.632812 1049.558594 736.585938 1042.761719 741.34375 1039.640625 C 744.027344 1037.878906 745.550781 1035.710938 745.632812 1033.539062 C 745.746094 1030.640625 743.277344 1028.101562 741.183594 1026.488281 C 735.4375 1022.050781 732.300781 1021.839844 732.34375 1015.410156 C 732.386719 1009.460938 735.222656 1003.929688 740.128906 1000.261719 C 743.308594 997.867188 744.902344 995.261719 744.730469 992.714844 C 744.574219 990.425781 742.988281 988.390625 741.503906 987.5625 C 736.582031 984.820312 733.238281 981.835938 732.554688 973.769531 C 731.753906 964.359375 734.78125 955.421875 740.269531 951.003906 C 741.71875 949.835938 743.457031 947.992188 743.492188 945.835938 C 743.519531 944.292969 742.660156 942.691406 741.078125 941.324219 C 727.207031 929.351562 723.488281 911.617188 731.824219 897.199219 C 737.460938 887.445312 733.453125 882.703125 730.5625 880.746094 C 723.382812 875.871094 707.074219 870.980469 705.222656 860.910156 C 703.199219 849.890625 705.78125 838.230469 712.308594 828.917969 C 715.753906 824 701.785156 815.925781 691.3125 802.605469 C 672.460938 778.636719 671.914062 764.40625 671.914062 760.230469 C 671.914062 749.738281 675.652344 742.660156 682.164062 740.808594 C 690.605469 738.414062 700.71875 745.566406 709.90625 760.445312 C 717.019531 771.957031 720.914062 759.59375 724.683594 769.988281 C 732.003906 790.195312 738.921875 809.285156 769.441406 829.765625 C 778.640625 835.941406 785.695312 834.972656 788.1875 832.8125 C 789.980469 831.261719 789.492188 829.140625 788.769531 827.636719 L 787.714844 825.449219 C 782.925781 815.566406 778.398438 806.234375 785.363281 798.203125 C 786.589844 796.789062 787.167969 795.457031 787.078125 794.242188 C 786.988281 793.039062 786.222656 791.808594 784.800781 790.589844 C 780.855469 787.210938 777.191406 783.382812 777.097656 778.332031 C 777.023438 774.40625 779.113281 770.53125 783.492188 766.484375 C 784.5 765.554688 784.980469 764.453125 784.921875 763.210938 C 784.839844 761.445312 783.65625 759.5625 781.675781 758.046875 C 777.0625 754.515625 774.910156 751.074219 775.089844 747.527344 C 775.328125 742.789062 779.632812 739.605469 782.851562 737.617188 C 783.261719 737.367188 784.617188 736.421875 784.792969 734.914062 C 784.992188 733.199219 783.601562 731.40625 782.398438 730.203125 C 779.503906 727.308594 778.203125 723.792969 778.742188 720.308594 C 779.300781 716.683594 781.789062 713.476562 785.566406 711.511719 C 787.855469 710.324219 789.324219 708.515625 789.703125 706.421875 C 790.1875 703.734375 788.925781 700.632812 786.054688 697.449219 C 748.234375 655.554688 732.054688 610.972656 716.402344 567.855469 C 698.007812 517.175781 645.964844 469.304688 595.8125 427.34375 C 588.515625 421.234375 585.289062 415.347656 586.222656 409.839844 C 587.144531 404.386719 591.917969 399.988281 600.402344 396.789062 C 631.421875 385.070312 747.898438 376.898438 801.921875 376.898438 C 855.9375 376.898438 972.417969 385.070312 1003.441406 396.789062 C 1011.921875 399.988281 1016.691406 404.386719 1017.621094 409.839844 C 1018.550781 415.347656 1015.320312 421.234375 1008.03125 427.34375 C 957.875 469.304688 905.832031 517.175781 887.4375 567.855469 C 871.785156 610.972656 855.605469 655.554688 817.785156 697.449219 C 814.914062 700.632812 813.652344 703.734375 814.136719 706.421875 C 814.515625 708.515625 815.984375 710.324219 818.273438 711.511719 C 822.050781 713.476562 824.539062 716.683594 825.097656 720.308594 C 825.636719 723.792969 824.339844 727.308594 821.441406 730.203125 C 820.238281 731.40625 818.847656 733.199219 819.046875 734.914062 C 819.222656 736.421875 820.574219 737.367188 820.988281 737.617188 C 824.207031 739.605469 828.511719 742.789062 828.75 747.527344 C 828.929688 751.074219 826.777344 754.515625 822.164062 758.042969 C 820.183594 759.5625 819 761.445312 818.917969 763.210938 C 818.859375 764.453125 819.339844 765.554688 820.347656 766.484375 C 824.726562 770.53125 826.816406 774.40625 826.742188 778.332031 C 826.648438 783.382812 822.984375 787.210938 819.039062 790.589844 C 817.617188 791.808594 816.851562 793.039062 816.761719 794.242188 C 816.671875 795.457031 817.25 796.789062 818.476562 798.203125 C 825.441406 806.234375 820.914062 815.566406 816.125 825.449219 L 815.070312 827.636719 C 814.347656 829.140625 813.859375 831.261719 815.652344 832.8125 C 818.144531 834.972656 825.195312 835.941406 834.398438 829.765625 C 864.917969 809.285156 871.835938 790.195312 879.15625 769.988281 C 882.921875 759.59375 886.820312 771.957031 893.933594 760.445312 C 901.953125 747.457031 910.679688 740.355469 918.382812 740.355469 " style=" stroke:none;fill-rule:nonzero;fill:rgb(93.263245%,48.072815%,40.942383%);fill-opacity:1;"/>
	<path d="M 999.816406 446.484375 C 1035.039062 405.929688 1028.039062 400.089844 997.792969 387.550781 C 950.414062 367.898438 836.839844 365.730469 801.921875 365.730469 C 767 365.730469 653.425781 367.898438 606.046875 387.550781 C 575.804688 400.089844 568.804688 405.929688 604.023438 446.484375 C 642.898438 491.246094 731.71875 641.78125 771.875 696.09375 C 784.347656 712.964844 772.140625 723.003906 769.757812 741.933594 C 767.5625 759.347656 775.628906 785.878906 775.628906 796.859375 C 775.628906 824.171875 774.402344 828.058594 801.921875 828.058594 C 829.4375 828.058594 828.210938 824.171875 828.210938 796.859375 C 828.210938 785.878906 836.277344 759.347656 834.085938 741.933594 C 831.699219 723.003906 819.492188 712.964844 831.964844 696.09375 C 872.121094 641.78125 960.941406 491.246094 999.816406 446.484375 " style=" stroke:none;fill-rule:nonzero;fill:rgb(64.324951%,20.56427%,20.602417%);fill-opacity:1;"/>
	<path d="M 997.792969 387.550781 C 950.414062 367.898438 836.839844 365.730469 801.921875 365.730469 C 767 365.730469 653.425781 367.898438 606.046875 387.550781 C 575.804688 400.089844 568.804688 405.929688 604.023438 446.484375 C 614.015625 457.992188 649.566406 502.113281 664.484375 524.171875 C 666.136719 421.71875 933.65625 447.542969 950.414062 507.050781 C 962.164062 490.046875 991.597656 455.945312 999.816406 446.484375 C 1035.039062 405.929688 1028.039062 400.089844 997.792969 387.550781 " style=" stroke:none;fill-rule:nonzero;fill:rgb(53.866577%,14.892578%,16.474915%);fill-opacity:1;"/>
	<path d="M 1012.328125 397.441406 C 974.679688 373.699219 831.796875 366.890625 801.921875 366.890625 C 772.042969 366.890625 629.15625 373.699219 591.511719 397.441406 C 556.367188 419.605469 635.324219 476.546875 635.324219 476.546875 C 617.796875 418.9375 748.476562 417.085938 801.921875 417.085938 C 855.363281 417.085938 990.28125 429.148438 968.515625 476.546875 C 968.515625 476.546875 1047.46875 419.605469 1012.328125 397.441406 " style=" stroke:none;fill-rule:nonzero;fill:rgb(43.539429%,11.920166%,12.030029%);fill-opacity:1;"/>
	<path d="M 997.792969 387.550781 C 996.050781 386.828125 994.203125 386.128906 992.289062 385.449219 C 986.53125 383.628906 980.285156 381.828125 973.558594 380.089844 C 919.246094 367.320312 831.796875 365.730469 801.921875 365.730469 C 772.042969 365.730469 684.59375 367.320312 630.28125 380.089844 C 623.554688 381.828125 617.308594 383.628906 611.550781 385.449219 C 609.636719 386.128906 607.789062 386.828125 606.046875 387.550781 C 580.769531 398.03125 571.75 403.847656 590.03125 429.148438 L 598.527344 429.148438 C 588.210938 418.621094 593.902344 411.226562 605.34375 406.902344 C 634.898438 395.738281 748.476562 387.578125 801.921875 387.578125 C 855.363281 387.578125 968.941406 395.738281 998.492188 406.902344 C 1009.941406 411.226562 1015.628906 418.621094 1005.308594 429.148438 L 1013.808594 429.148438 C 1032.089844 403.847656 1023.070312 398.03125 997.792969 387.550781 " style=" stroke:none;fill-rule:nonzero;fill:rgb(97.937012%,71.697998%,61.859131%);fill-opacity:1;"/>
	<path d="M 828.210938 706.816406 C 827.847656 703.425781 834.023438 683.59375 831.386719 679.984375 C 823.492188 691.925781 809.019531 698.738281 801.523438 698.738281 C 794.023438 698.738281 783.148438 692.695312 771.59375 679.984375 C 768.957031 683.59375 775.992188 703.425781 775.628906 706.816406 C 781.769531 711.945312 791.519531 716.304688 801.921875 716.304688 C 812.316406 716.304688 822.070312 711.945312 828.210938 706.816406 " style=" stroke:none;fill-rule:nonzero;fill:rgb(73.852539%,28.340149%,23.960876%);fill-opacity:1;"/>
	<path d="M 828.210938 738.019531 C 827.847656 734.625 827.242188 728.949219 824.605469 725.339844 C 818.105469 730.539062 809.019531 734.390625 801.523438 734.390625 C 794.023438 734.390625 785.691406 730.539062 779.191406 725.339844 C 776.558594 728.949219 775.992188 734.625 775.628906 738.019531 C 781.769531 743.148438 791.519531 748.660156 801.921875 748.660156 C 812.316406 748.660156 822.070312 743.148438 828.210938 738.019531 " style=" stroke:none;fill-rule:nonzero;fill:rgb(73.852539%,28.340149%,23.960876%);fill-opacity:1;"/>
	<path d="M 825.246094 755.390625 C 817.59375 760.371094 809.417969 762.539062 801.921875 762.539062 C 794.421875 762.539062 786.246094 760.371094 778.589844 755.390625 C 777.699219 759.410156 774.753906 762.199219 774.402344 766.441406 C 780.539062 771.566406 791.519531 775.242188 801.921875 775.242188 C 812.316406 775.242188 823.296875 771.566406 829.4375 766.441406 C 829.085938 762.199219 826.140625 759.410156 825.246094 755.390625 " style=" stroke:none;fill-rule:nonzero;fill:rgb(73.852539%,28.340149%,23.960876%);fill-opacity:1;"/>
	<path d="M 825.464844 785.507812 C 819.253906 790.347656 809.417969 792.585938 801.921875 792.585938 C 794.421875 792.585938 784.585938 790.347656 778.375 785.507812 C 775.125 789.40625 774.753906 792.171875 774.402344 796.414062 C 780.613281 802.335938 791.519531 805.285156 801.921875 805.285156 C 812.316406 805.285156 823.226562 802.335938 829.4375 796.414062 C 829.085938 792.171875 828.714844 789.40625 825.464844 785.507812 " style=" stroke:none;fill-rule:nonzero;fill:rgb(73.852539%,28.340149%,23.960876%);fill-opacity:1;"/>
	<path d="M 828.210938 713.753906 C 827.847656 710.355469 826.476562 705.050781 823.839844 701.4375 C 817.339844 706.636719 809.417969 710.539062 801.921875 710.539062 C 794.421875 710.539062 786.5 706.636719 780 701.4375 C 777.363281 705.050781 775.992188 710.355469 775.628906 713.753906 C 781.769531 718.878906 791.519531 723.238281 801.921875 723.238281 C 812.316406 723.238281 822.070312 718.878906 828.210938 713.753906 " style=" stroke:none;fill-rule:nonzero;fill:rgb(53.866577%,14.892578%,16.474915%);fill-opacity:1;"/>
	<path d="M 828.210938 744.953125 C 827.847656 741.558594 826.476562 737.40625 823.839844 733.792969 C 817.339844 738.996094 809.417969 742.894531 801.921875 742.894531 C 794.421875 742.894531 786.5 738.996094 780 733.792969 C 777.363281 737.40625 775.992188 741.558594 775.628906 744.953125 C 781.769531 750.082031 791.519531 755.597656 801.921875 755.597656 C 812.316406 755.597656 822.070312 750.082031 828.210938 744.953125 " style=" stroke:none;fill-rule:nonzero;fill:rgb(53.866577%,14.892578%,16.474915%);fill-opacity:1;"/>
	<path d="M 825.246094 762.324219 C 817.59375 767.308594 809.417969 769.472656 801.921875 769.472656 C 794.421875 769.472656 786.246094 767.308594 778.589844 762.324219 C 777.699219 766.34375 774.753906 769.132812 774.402344 773.371094 C 780.539062 778.5 791.519531 782.175781 801.921875 782.175781 C 812.316406 782.175781 823.296875 778.5 829.4375 773.371094 C 829.085938 769.132812 826.140625 766.34375 825.246094 762.324219 " style=" stroke:none;fill-rule:nonzero;fill:rgb(53.866577%,14.892578%,16.474915%);fill-opacity:1;"/>
	<path d="M 825.464844 792.441406 C 819.253906 797.28125 809.417969 799.519531 801.921875 799.519531 C 794.421875 799.519531 784.585938 797.28125 778.375 792.441406 C 775.125 796.339844 774.753906 799.105469 774.402344 803.347656 C 780.613281 809.269531 791.519531 812.21875 801.921875 812.21875 C 812.316406 812.21875 823.226562 809.269531 829.4375 803.347656 C 829.085938 799.105469 828.714844 796.339844 825.464844 792.441406 " style=" stroke:none;fill-rule:nonzero;fill:rgb(53.866577%,14.892578%,16.474915%);fill-opacity:1;"/>
	<path d="M 801.988281 1171.78125 C 776.8125 1171.78125 759.59375 1165 736.882812 1151.441406 C 735.410156 1156.378906 738.367188 1161.5 738.007812 1166.820312 C 754.617188 1177.160156 762.789062 1187.621094 801.988281 1187.621094 C 841.1875 1187.621094 850.378906 1177.160156 866.988281 1166.820312 C 866.628906 1161.5 869.585938 1156.378906 868.113281 1151.441406 C 845.402344 1165 827.164062 1171.78125 801.988281 1171.78125 " style=" stroke:none;fill-rule:nonzero;fill:rgb(81.916809%,35.517883%,31.147766%);fill-opacity:1;"/>
	<path d="M 801.941406 1129.210938 C 774.378906 1129.210938 758.054688 1122.429688 733.191406 1108.871094 C 731.578125 1113.800781 728.574219 1117.910156 728.179688 1123.230469 C 746.367188 1133.570312 759.023438 1145.050781 801.941406 1145.050781 C 844.855469 1145.050781 858.628906 1133.570312 876.8125 1123.230469 C 876.421875 1117.910156 873.417969 1113.800781 871.804688 1108.871094 C 846.9375 1122.429688 829.503906 1129.210938 801.941406 1129.210938 " style=" stroke:none;fill-rule:nonzero;fill:rgb(81.916809%,35.517883%,31.147766%);fill-opacity:1;"/>
	<path d="M 801.988281 1086.769531 C 776.8125 1086.769531 761.90625 1080 739.195312 1066.441406 C 737.71875 1071.371094 734.976562 1075.46875 734.617188 1080.800781 C 751.226562 1091.140625 762.789062 1102.621094 801.988281 1102.621094 C 841.1875 1102.621094 853.769531 1091.140625 870.378906 1080.800781 C 870.019531 1075.46875 867.273438 1071.371094 865.800781 1066.441406 C 843.089844 1080 827.164062 1086.769531 801.988281 1086.769531 " style=" stroke:none;fill-rule:nonzero;fill:rgb(81.916809%,35.517883%,31.147766%);fill-opacity:1;"/>
	<path d="M 801.988281 1037.078125 C 776.8125 1037.078125 760.464844 1033.230469 737.753906 1019.671875 C 736.277344 1024.601562 733.195312 1029.261719 732.839844 1034.578125 C 749.449219 1044.921875 762.789062 1052.929688 801.988281 1052.929688 C 841.1875 1052.929688 855.546875 1044.921875 872.15625 1034.578125 C 871.796875 1029.261719 868.714844 1024.601562 867.242188 1019.671875 C 844.53125 1033.230469 827.164062 1037.078125 801.988281 1037.078125 " style=" stroke:none;fill-rule:nonzero;fill:rgb(81.916809%,35.517883%,31.147766%);fill-opacity:1;"/>
	<path d="M 801.988281 989.980469 C 776.8125 989.980469 757.195312 986.113281 733.726562 975.871094 C 732.253906 980.808594 730.402344 987.324219 730.042969 992.652344 C 748.339844 1001.011719 762.789062 1005.828125 801.988281 1005.828125 C 841.1875 1005.828125 856.65625 1001.011719 874.953125 992.652344 C 874.59375 987.324219 872.742188 980.808594 871.265625 975.871094 C 847.800781 986.113281 827.164062 989.980469 801.988281 989.980469 " style=" stroke:none;fill-rule:nonzero;fill:rgb(81.916809%,35.517883%,31.147766%);fill-opacity:1;"/>
	<path d="M 801.988281 944.636719 C 776.8125 944.636719 757.195312 940.769531 733.726562 930.527344 C 732.253906 935.460938 730.402344 941.980469 730.042969 947.304688 C 748.339844 955.667969 762.789062 960.480469 801.988281 960.480469 C 841.1875 960.480469 856.65625 955.667969 874.953125 947.304688 C 874.59375 941.980469 872.742188 935.460938 871.265625 930.527344 C 847.800781 940.769531 827.164062 944.636719 801.988281 944.636719 " style=" stroke:none;fill-rule:nonzero;fill:rgb(81.916809%,35.517883%,31.147766%);fill-opacity:1;"/>
	<path d="M 801.988281 900.910156 C 776.8125 900.910156 750.464844 893.492188 726.90625 880.613281 C 725.433594 885.546875 724.890625 891.558594 724.53125 896.882812 C 742.738281 906.542969 762.789062 916.753906 801.988281 916.753906 C 841.1875 916.753906 862.253906 906.542969 880.460938 896.882812 C 880.101562 891.558594 879.5625 885.546875 878.089844 880.613281 C 854.53125 893.492188 827.164062 900.910156 801.988281 900.910156 " style=" stroke:none;fill-rule:nonzero;fill:rgb(81.916809%,35.517883%,31.147766%);fill-opacity:1;"/>
	<path d="M 897.742188 814.695312 C 875.949219 840.585938 836.203125 854.550781 801.921875 854.550781 C 767.636719 854.550781 728.972656 840.03125 707.929688 816.007812 C 703.453125 817.980469 702.871094 825.746094 703.503906 829.960938 C 720.257812 850.144531 747.027344 873.136719 801.921875 873.136719 C 856.8125 873.136719 884.738281 852.691406 901.492188 832.511719 C 902.125 828.292969 902.601562 818.269531 897.742188 814.695312 " style=" stroke:none;fill-rule:nonzero;fill:rgb(81.916809%,35.517883%,31.147766%);fill-opacity:1;"/>
	<path d="M 801.988281 1182.179688 C 776.8125 1182.179688 761.90625 1175.398438 739.195312 1161.839844 C 737.71875 1166.78125 738.367188 1171.898438 738.007812 1177.21875 C 754.617188 1187.558594 762.789062 1198.019531 801.988281 1198.019531 C 841.1875 1198.019531 850.378906 1187.558594 866.988281 1177.21875 C 866.628906 1171.898438 867.273438 1166.78125 865.800781 1161.839844 C 843.089844 1175.398438 827.164062 1182.179688 801.988281 1182.179688 " style=" stroke:none;fill-rule:nonzero;fill:rgb(62.060547%,18.893433%,16.880798%);fill-opacity:1;"/>
	<path d="M 801.988281 1139.609375 C 776.8125 1139.609375 761.90625 1132.828125 739.195312 1119.269531 C 737.71875 1124.210938 734.976562 1128.308594 734.617188 1133.628906 C 751.226562 1143.96875 762.789062 1155.449219 801.988281 1155.449219 C 841.1875 1155.449219 853.769531 1143.96875 870.378906 1133.628906 C 870.019531 1128.308594 867.273438 1124.210938 865.800781 1119.269531 C 843.089844 1132.828125 827.164062 1139.609375 801.988281 1139.609375 " style=" stroke:none;fill-rule:nonzero;fill:rgb(62.060547%,18.893433%,16.880798%);fill-opacity:1;"/>
	<path d="M 801.988281 1096.019531 C 776.8125 1096.019531 761.90625 1089.238281 739.195312 1075.679688 C 737.71875 1080.621094 734.976562 1084.71875 734.617188 1090.039062 C 751.226562 1100.378906 762.789062 1111.859375 801.988281 1111.859375 C 841.1875 1111.859375 853.769531 1100.378906 870.378906 1090.039062 C 870.019531 1084.71875 867.273438 1080.621094 865.800781 1075.679688 C 843.089844 1089.238281 827.164062 1096.019531 801.988281 1096.019531 " style=" stroke:none;fill-rule:nonzero;fill:rgb(62.060547%,18.893433%,16.880798%);fill-opacity:1;"/>
	<path d="M 801.988281 1047.480469 C 776.8125 1047.480469 760.464844 1043.628906 737.753906 1030.070312 C 736.277344 1035 733.195312 1039.660156 732.839844 1044.980469 C 749.449219 1055.320312 762.789062 1063.328125 801.988281 1063.328125 C 841.1875 1063.328125 855.546875 1055.320312 872.15625 1044.980469 C 871.796875 1039.660156 868.714844 1035 867.242188 1030.070312 C 844.53125 1043.628906 827.164062 1047.480469 801.988281 1047.480469 " style=" stroke:none;fill-rule:nonzero;fill:rgb(62.060547%,18.893433%,16.880798%);fill-opacity:1;"/>
	<path d="M 801.988281 1000.378906 C 776.8125 1000.378906 757.195312 996.515625 733.726562 986.273438 C 732.253906 991.207031 730.402344 997.726562 730.042969 1003.050781 C 748.339844 1011.410156 762.789062 1016.230469 801.988281 1016.230469 C 841.1875 1016.230469 856.65625 1011.410156 874.953125 1003.050781 C 874.59375 997.726562 872.742188 991.207031 871.265625 986.273438 C 847.800781 996.515625 827.164062 1000.378906 801.988281 1000.378906 " style=" stroke:none;fill-rule:nonzero;fill:rgb(62.060547%,18.893433%,16.880798%);fill-opacity:1;"/>
	<path d="M 801.988281 955.035156 C 776.8125 955.035156 757.195312 951.167969 733.726562 940.925781 C 732.253906 945.863281 730.402344 952.378906 730.042969 957.707031 C 748.339844 966.070312 762.789062 970.878906 801.988281 970.878906 C 841.1875 970.878906 856.65625 966.070312 874.953125 957.707031 C 874.59375 952.378906 872.742188 945.863281 871.265625 940.925781 C 847.800781 951.167969 827.164062 955.035156 801.988281 955.035156 " style=" stroke:none;fill-rule:nonzero;fill:rgb(62.060547%,18.893433%,16.880798%);fill-opacity:1;"/>
	<path d="M 801.988281 911.308594 C 776.8125 911.308594 750.464844 903.894531 726.90625 891.011719 C 725.433594 895.949219 724.890625 901.957031 724.53125 907.285156 C 742.738281 916.945312 762.789062 927.152344 801.988281 927.152344 C 841.1875 927.152344 862.253906 916.945312 880.460938 907.285156 C 880.101562 901.957031 879.5625 895.949219 878.089844 891.011719 C 854.53125 903.894531 827.164062 911.308594 801.988281 911.308594 " style=" stroke:none;fill-rule:nonzero;fill:rgb(62.060547%,18.893433%,16.880798%);fill-opacity:1;"/>
	<path d="M 896.101562 826.484375 C 876.070312 851.519531 836.203125 865.53125 801.921875 865.53125 C 767.636719 865.53125 728.925781 851.519531 708.894531 826.484375 C 709.828125 830.1875 702.871094 839.414062 703.503906 843.238281 C 720.257812 861.535156 747.027344 882.378906 801.921875 882.378906 C 856.8125 882.378906 884.738281 863.847656 901.492188 845.550781 C 902.125 841.726562 895.164062 830.1875 896.101562 826.484375 " style=" stroke:none;fill-rule:nonzero;fill:rgb(62.060547%,18.893433%,16.880798%);fill-opacity:1;"/>
	<path d="M 929.078125 721.722656 C 935.574219 727.8125 939.722656 739.585938 940.191406 756.378906 C 940.402344 763.890625 941.539062 779.875 927.863281 805.105469 C 922.746094 814.546875 904.21875 820.527344 905.714844 826.867188 C 908.988281 840.734375 899.761719 857.625 886.203125 879.996094 C 882.929688 885.398438 880.4375 892.199219 882.234375 900.5 C 885.171875 914.058594 883.234375 929.136719 875.355469 939.316406 C 873.417969 941.816406 874.464844 947.765625 875.355469 950.84375 C 878.527344 961.832031 882.386719 973.472656 875.183594 985.847656 C 873.105469 989.421875 870.527344 993.128906 875.355469 999.746094 C 882.078125 1008.960938 881.269531 1013.160156 875.355469 1023.121094 C 872.132812 1028.539062 872.644531 1034.789062 873.828125 1037.359375 C 878.746094 1048.039062 880.25 1057.429688 874.675781 1067.648438 C 872.644531 1071.378906 871.738281 1074.480469 873.828125 1078.160156 C 885.015625 1097.820312 875.933594 1125.148438 872.386719 1146.460938 C 865.761719 1186.289062 865.523438 1202.300781 838.59375 1230.03125 C 834.898438 1233.839844 834.726562 1238.621094 837.835938 1239.050781 C 833.496094 1260.640625 837.242188 1273.988281 843.304688 1294.730469 C 840.585938 1295.199219 833.886719 1294.589844 830.167969 1287.191406 C 827.261719 1281.398438 817.855469 1271.449219 816.203125 1251.109375 C 815.101562 1237.570312 816.203125 1226.070312 827.261719 1216.160156 C 837.699219 1206.800781 852.679688 1197.109375 846.882812 1174.738281 C 845.742188 1170.359375 843.421875 1164.5 850.386719 1161.011719 C 861.796875 1155.269531 863.355469 1142.121094 855.113281 1133.261719 C 847.542969 1125.128906 850.886719 1120.429688 855.113281 1118.160156 C 869.59375 1110.359375 864.679688 1091 853.574219 1086.96875 C 843.0625 1083.160156 847.824219 1075.410156 851.921875 1072.730469 C 864.632812 1064.429688 864.0625 1047.640625 855.113281 1041.761719 C 848.914062 1037.699219 846.878906 1030.839844 855.113281 1024.480469 C 865.863281 1016.171875 864.945312 1008.851562 856.203125 1002.289062 C 846.710938 995.171875 851.25 987.492188 855.113281 985.339844 C 864.847656 979.917969 865.769531 960.855469 855.988281 952.984375 C 850.015625 948.171875 851.132812 942.839844 855.113281 939.402344 C 868.957031 927.453125 870.898438 910.699219 863.828125 898.46875 C 857.558594 887.621094 861.726562 881.445312 865.863281 878.640625 C 880.609375 868.640625 895.027344 847.476562 883.183594 830.574219 C 877.910156 823.050781 894.160156 813.675781 904.269531 800.820312 C 920.578125 780.085938 923.050781 770.734375 923.050781 760.230469 C 923.050781 746.5625 916.199219 740.246094 906.9375 744.675781 C 912.046875 734.863281 919.71875 727.308594 929.078125 721.722656 " style=" stroke:none;fill-rule:nonzero;fill:rgb(97.937012%,71.697998%,61.859131%);fill-opacity:1;"/>
	<path d="M 675.707031 721.722656 C 669.214844 727.8125 665.066406 739.585938 664.597656 756.378906 C 664.386719 763.890625 663.246094 779.875 676.921875 805.105469 C 682.039062 814.546875 700.570312 820.527344 699.070312 826.867188 C 695.796875 840.734375 705.027344 857.625 718.585938 879.996094 C 721.859375 885.398438 724.347656 892.199219 722.550781 900.5 C 719.617188 914.058594 721.550781 929.136719 729.433594 939.316406 C 731.367188 941.816406 730.320312 947.765625 729.433594 950.84375 C 726.257812 961.832031 722.402344 973.472656 729.601562 985.847656 C 731.683594 989.421875 734.261719 993.128906 729.433594 999.746094 C 722.710938 1008.960938 723.519531 1013.160156 729.433594 1023.121094 C 732.652344 1028.539062 732.144531 1034.789062 730.957031 1037.359375 C 726.042969 1048.039062 724.539062 1057.429688 730.109375 1067.648438 C 732.144531 1071.378906 733.050781 1074.480469 730.957031 1078.160156 C 719.773438 1097.820312 728.851562 1125.148438 732.398438 1146.460938 C 739.023438 1186.289062 739.261719 1202.300781 766.195312 1230.03125 C 769.890625 1233.839844 770.058594 1238.621094 766.953125 1239.050781 C 771.292969 1260.640625 767.5 1274.148438 761.4375 1294.890625 C 764.558594 1294.921875 770.898438 1294.589844 774.617188 1287.191406 C 777.527344 1281.398438 786.933594 1271.449219 788.585938 1251.109375 C 789.683594 1237.570312 788.585938 1226.070312 777.523438 1216.160156 C 767.089844 1206.800781 752.105469 1197.109375 757.90625 1174.738281 C 759.042969 1170.359375 761.367188 1164.5 754.402344 1161.011719 C 742.992188 1155.269531 741.429688 1142.121094 749.675781 1133.261719 C 757.246094 1125.128906 753.902344 1120.429688 749.675781 1118.160156 C 735.195312 1110.359375 740.109375 1091 751.210938 1086.96875 C 761.726562 1083.160156 756.964844 1075.410156 752.863281 1072.730469 C 740.152344 1064.429688 740.722656 1047.640625 749.675781 1041.761719 C 755.871094 1037.699219 757.90625 1030.839844 749.675781 1024.480469 C 738.925781 1016.171875 739.84375 1008.851562 748.585938 1002.289062 C 758.078125 995.171875 753.535156 987.492188 749.675781 985.339844 C 739.941406 979.917969 739.019531 960.855469 748.796875 952.984375 C 754.773438 948.171875 753.65625 942.839844 749.675781 939.402344 C 735.832031 927.453125 733.890625 910.699219 740.957031 898.46875 C 747.230469 887.621094 743.0625 881.445312 738.925781 878.640625 C 724.179688 868.640625 709.761719 847.476562 721.605469 830.574219 C 726.878906 823.050781 710.628906 813.675781 700.515625 800.820312 C 684.210938 780.085938 681.738281 770.734375 681.738281 760.230469 C 681.738281 746.5625 688.585938 740.246094 697.851562 744.675781 C 692.738281 734.863281 685.066406 727.308594 675.707031 721.722656 " style=" stroke:none;fill-rule:nonzero;fill:rgb(97.937012%,71.697998%,61.859131%);fill-opacity:1;"/>
	<path d="M 557.511719 351.050781 C 592.589844 313.050781 662.863281 264.328125 801.921875 264.328125 C 940.976562 264.328125 1011.25 313.050781 1046.328125 351.050781 C 1060.699219 366.609375 1065.421875 382.058594 1066.761719 399.121094 C 1078.421875 421.367188 1084.949219 446.105469 1088.429688 471.449219 C 1095.558594 453.410156 1099.789062 433.234375 1099.871094 409.097656 C 1100.019531 364.441406 1078.300781 342 1033.230469 305.03125 C 977.378906 259.210938 888.589844 236.429688 801.921875 236.429688 C 715.25 236.429688 626.460938 259.210938 570.609375 305.03125 C 525.539062 342 503.824219 364.441406 503.96875 409.097656 C 504.039062 430.644531 507.421875 449.03125 513.222656 465.5625 C 519.375 440.742188 528.191406 416.578125 537.722656 393.070312 C 539.6875 378.359375 544.859375 364.75 557.511719 351.050781 " style=" stroke:none;fill-rule:nonzero;fill:rgb(97.937012%,71.697998%,61.859131%);fill-opacity:1;"/>
	<path d="M 966.59375 627.335938 C 961.085938 636.160156 948.808594 661.421875 956.578125 698.597656 C 958.566406 708.117188 967.363281 735.960938 961.390625 768.125 C 955.226562 801.339844 935.117188 834.601562 928.84375 866.15625 C 923.898438 891.03125 903.996094 899.613281 900.613281 922.890625 C 893.5 971.851562 902.542969 1111.710938 894.527344 1151.78125 C 884.148438 1203.691406 868.417969 1219.71875 852.480469 1234.519531 C 841.804688 1244.429688 838.902344 1236.019531 844.714844 1230.03125 C 871.648438 1202.300781 872.902344 1186.289062 879.53125 1146.460938 C 883.074219 1125.148438 892.15625 1097.820312 880.96875 1078.160156 C 878.878906 1074.480469 879.785156 1071.378906 881.816406 1067.648438 C 887.390625 1057.429688 885.886719 1048.039062 880.96875 1037.359375 C 879.785156 1034.789062 879.273438 1028.539062 882.496094 1023.121094 C 888.410156 1013.160156 889.21875 1008.960938 882.496094 999.746094 C 877.667969 993.128906 880.246094 989.421875 882.324219 985.847656 C 889.527344 973.472656 885.671875 961.832031 882.496094 950.84375 C 881.605469 947.765625 880.558594 941.816406 882.496094 939.316406 C 890.378906 929.136719 892.3125 914.058594 889.378906 900.5 C 887.578125 892.199219 890.070312 885.398438 893.34375 879.996094 C 906.902344 857.625 916.132812 840.734375 912.855469 826.867188 C 911.359375 820.527344 928.734375 814.546875 933.851562 805.105469 C 947.523438 779.875 946.386719 763.890625 946.175781 756.378906 C 944.910156 711 916.792969 702.214844 888.011719 743.472656 C 872.84375 765.214844 859.699219 789.695312 850.886719 798.074219 C 849.5625 799.332031 845.335938 802.757812 840.488281 798.941406 C 837.550781 796.628906 837.460938 792.863281 843.039062 784.015625 C 846.988281 777.753906 845.640625 771.304688 839.667969 766.199219 C 837.648438 764.46875 835.414062 761.621094 838.804688 758.976562 C 841.882812 756.570312 844.003906 754.066406 845.929688 749.539062 C 848.03125 744.597656 846.601562 739.234375 843.714844 736.730469 C 838.710938 732.394531 841.371094 728.722656 842.367188 727.003906 C 844.773438 722.839844 847.335938 715.035156 842.945312 710.539062 C 837.804688 705.269531 839.695312 700.472656 842.800781 696.816406 C 883.390625 649.003906 977.785156 478.265625 1022.828125 431.980469 C 1048.640625 405.460938 1036.371094 392.96875 1015.320312 384.46875 C 977.183594 369.058594 905.347656 352.941406 801.921875 352.941406 C 698.492188 352.941406 626.652344 369.058594 588.519531 384.46875 C 567.46875 392.96875 555.199219 405.460938 581.007812 431.980469 C 626.054688 478.265625 720.449219 649.003906 761.039062 696.816406 C 764.144531 700.472656 766.035156 705.269531 760.894531 710.539062 C 756.507812 715.035156 759.066406 722.839844 761.472656 727.003906 C 762.46875 728.722656 765.128906 732.394531 760.125 736.730469 C 757.238281 739.234375 755.808594 744.597656 757.910156 749.539062 C 759.835938 754.066406 761.957031 756.570312 765.035156 758.976562 C 768.425781 761.621094 766.191406 764.46875 764.171875 766.199219 C 758.199219 771.304688 756.851562 777.753906 760.800781 784.015625 C 766.382812 792.863281 766.289062 796.628906 763.351562 798.941406 C 758.503906 802.757812 754.277344 799.332031 752.953125 798.074219 C 744.140625 789.695312 730.996094 765.214844 715.828125 743.472656 C 687.046875 702.214844 658.929688 711 657.664062 756.378906 C 657.453125 763.890625 656.316406 779.875 669.988281 805.105469 C 675.105469 814.546875 693.636719 820.527344 692.136719 826.867188 C 688.863281 840.734375 698.09375 857.625 711.652344 879.996094 C 714.925781 885.398438 717.414062 892.199219 715.617188 900.5 C 712.683594 914.058594 714.617188 929.136719 722.5 939.316406 C 724.433594 941.816406 723.386719 947.765625 722.5 950.84375 C 719.324219 961.832031 715.46875 973.472656 722.667969 985.847656 C 724.746094 989.421875 727.328125 993.128906 722.5 999.746094 C 715.777344 1008.960938 716.585938 1013.160156 722.5 1023.121094 C 725.71875 1028.539062 725.210938 1034.789062 724.023438 1037.359375 C 719.109375 1048.039062 717.605469 1057.429688 723.179688 1067.648438 C 725.210938 1071.378906 726.117188 1074.480469 724.023438 1078.160156 C 712.839844 1097.820312 721.921875 1125.148438 725.464844 1146.460938 C 732.089844 1186.289062 732.328125 1202.300781 759.261719 1230.03125 C 765.074219 1236.019531 762.175781 1244.429688 751.496094 1234.519531 C 735.558594 1219.71875 720.847656 1203.691406 710.464844 1151.78125 C 702.453125 1111.710938 711.496094 971.851562 704.382812 922.890625 C 700.996094 899.613281 681.097656 891.03125 676.152344 866.15625 C 669.878906 834.601562 648.613281 801.339844 642.449219 768.125 C 636.476562 735.960938 645.273438 708.117188 647.261719 698.597656 C 655.03125 661.421875 642.753906 636.160156 637.246094 627.335938 C 611.054688 585.347656 536.613281 510.621094 536.613281 419.90625 C 536.613281 397.371094 539.40625 378.109375 557.511719 358.660156 C 592.589844 320.96875 662.863281 272.640625 801.921875 272.640625 C 940.976562 272.640625 1011.25 320.96875 1046.328125 358.660156 C 1064.429688 378.109375 1067.230469 397.371094 1067.230469 419.90625 C 1067.230469 510.621094 992.785156 585.347656 966.59375 627.335938 Z M 1099.871094 416.246094 C 1100.019531 371.949219 1078.300781 349.691406 1033.230469 313.011719 C 977.378906 267.558594 888.589844 250.691406 801.921875 250.691406 C 715.25 250.691406 626.460938 267.558594 570.609375 313.011719 C 525.539062 349.691406 503.824219 371.949219 503.96875 416.246094 C 504.28125 512.222656 571.28125 545 624.535156 631.570312 C 639.613281 656.082031 637.011719 684.277344 635.515625 689.160156 C 624.535156 724.984375 621.832031 745.363281 625.929688 773.300781 C 630.335938 803.355469 655.710938 838.703125 659.972656 866.929688 C 664.277344 895.433594 686.738281 903.894531 690.976562 922.367188 C 698.582031 955.539062 682.160156 1077.859375 695.722656 1153.339844 C 704.714844 1203.421875 718.433594 1218.058594 744.871094 1245.179688 C 757.039062 1257.660156 750.515625 1274.96875 751.777344 1283.179688 C 753.8125 1296.398438 765.253906 1298.941406 769.398438 1288.140625 C 771.722656 1282.089844 779.996094 1271.449219 781.652344 1251.109375 C 782.75 1237.570312 781.652344 1226.070312 770.59375 1216.160156 C 760.152344 1206.800781 745.175781 1197.109375 750.972656 1174.738281 C 752.109375 1170.359375 754.433594 1164.5 747.46875 1161.011719 C 736.058594 1155.269531 734.496094 1142.121094 742.738281 1133.261719 C 750.3125 1125.128906 746.96875 1120.429688 742.738281 1118.160156 C 728.261719 1110.359375 733.175781 1091 744.277344 1086.96875 C 754.792969 1083.160156 750.03125 1075.410156 745.929688 1072.730469 C 733.21875 1064.429688 733.789062 1047.640625 742.738281 1041.761719 C 748.941406 1037.699219 750.976562 1030.839844 742.738281 1024.480469 C 731.992188 1016.171875 732.910156 1008.851562 741.652344 1002.289062 C 751.144531 995.171875 746.605469 987.492188 742.738281 985.339844 C 733.007812 979.917969 732.085938 960.855469 741.863281 952.984375 C 747.839844 948.171875 746.722656 942.839844 742.738281 939.402344 C 728.898438 927.453125 726.953125 910.699219 734.023438 898.46875 C 740.296875 887.621094 736.128906 881.445312 731.992188 878.640625 C 717.246094 868.640625 702.828125 847.476562 714.671875 830.574219 C 719.945312 823.050781 703.695312 813.675781 693.582031 800.820312 C 677.277344 780.085938 674.804688 770.734375 674.804688 760.230469 C 674.804688 739.140625 691.109375 735.515625 707.449219 761.960938 C 728.457031 795.96875 721.027344 807.6875 767.828125 839.097656 C 782.988281 849.273438 795.976562 835.972656 791.375 826.386719 C 786.175781 815.554688 781.40625 807.175781 787.546875 800.097656 C 790.933594 796.191406 790.898438 792.011719 786.679688 788.394531 C 780.613281 783.195312 775.847656 777.488281 785.453125 768.605469 C 789.238281 765.105469 788.410156 759.5625 783.429688 755.75 C 775.414062 749.613281 776.640625 744.84375 784.367188 740.078125 C 787.398438 738.210938 790.003906 733.722656 784.441406 728.160156 C 779.363281 723.085938 781.335938 716.964844 786.898438 714.078125 C 792.976562 710.917969 795.5625 703.675781 788.195312 695.515625 C 707.164062 605.742188 722.761719 523.472656 597.667969 425.125 C 582.574219 413.261719 588.714844 404.292969 601.425781 399.488281 C 631.566406 388.101562 747.410156 379.789062 801.921875 379.789062 C 856.429688 379.789062 972.273438 388.101562 1002.421875 399.488281 C 1015.128906 404.292969 1021.550781 413.632812 1006.171875 425.125 C 882.234375 517.75 896.675781 605.742188 815.644531 695.515625 C 808.277344 703.675781 810.863281 710.917969 816.941406 714.078125 C 822.503906 716.964844 824.476562 723.085938 819.398438 728.160156 C 813.835938 733.722656 816.441406 738.210938 819.46875 740.078125 C 827.199219 744.84375 828.425781 749.613281 820.410156 755.75 C 815.429688 759.5625 814.601562 765.105469 818.386719 768.605469 C 827.992188 777.488281 823.226562 783.195312 817.160156 788.394531 C 812.941406 792.011719 812.90625 796.191406 816.292969 800.097656 C 822.433594 807.175781 817.664062 815.554688 812.464844 826.386719 C 807.863281 835.972656 820.851562 849.273438 836.011719 839.097656 C 882.8125 807.6875 875.382812 795.96875 896.390625 761.960938 C 912.726562 735.515625 929.035156 739.140625 929.035156 760.230469 C 929.035156 770.734375 926.5625 780.085938 910.257812 800.820312 C 900.144531 813.675781 885.050781 823.050781 890.324219 830.574219 C 902.167969 847.476562 887.75 868.640625 873.003906 878.640625 C 868.867188 881.445312 864.699219 887.621094 870.96875 898.46875 C 878.039062 910.699219 876.097656 927.453125 862.253906 939.402344 C 858.273438 942.839844 857.15625 948.171875 863.132812 952.984375 C 872.910156 960.855469 871.988281 979.917969 862.253906 985.339844 C 858.390625 987.492188 853.851562 995.171875 863.34375 1002.289062 C 872.085938 1008.851562 873.003906 1016.171875 862.253906 1024.480469 C 854.019531 1030.839844 856.054688 1037.699219 862.253906 1041.761719 C 871.203125 1047.640625 871.777344 1064.429688 859.0625 1072.730469 C 854.964844 1075.410156 850.203125 1083.160156 860.71875 1086.96875 C 871.820312 1091 876.734375 1110.359375 862.253906 1118.160156 C 858.027344 1120.429688 854.683594 1125.128906 862.253906 1133.261719 C 870.496094 1142.121094 868.9375 1155.269531 857.527344 1161.011719 C 850.5625 1164.5 852.886719 1170.359375 854.023438 1174.738281 C 859.820312 1197.109375 843.824219 1206.800781 833.386719 1216.160156 C 822.328125 1226.070312 821.226562 1237.570312 822.328125 1251.109375 C 823.980469 1271.449219 832.257812 1282.089844 834.578125 1288.140625 C 838.726562 1298.941406 850.164062 1296.398438 852.199219 1283.179688 C 853.464844 1274.96875 846.9375 1257.660156 859.105469 1245.179688 C 885.546875 1218.058594 900.277344 1203.421875 909.273438 1153.339844 C 922.835938 1077.859375 906.410156 955.539062 914.019531 922.367188 C 918.257812 903.894531 940.71875 895.433594 945.019531 866.929688 C 949.285156 838.703125 973.503906 803.355469 977.910156 773.300781 C 982.007812 745.363281 979.304688 724.984375 968.324219 689.160156 C 966.828125 684.277344 964.226562 656.082031 979.304688 631.570312 C 1032.558594 545 1099.558594 512.222656 1099.871094 416.246094 " style=" stroke:none;fill-rule:nonzero;fill:rgb(97.001648%,59.509277%,51.393127%);fill-opacity:1;"/>
	<path d="M 966.160156 567.410156 C 1000.628906 529.277344 1057.839844 467.261719 1048.441406 418.9375 C 1040.890625 461.867188 978.679688 539.292969 966.160156 567.410156 " style=" stroke:none;fill-rule:nonzero;fill:rgb(86.541748%,37.249756%,31.262207%);fill-opacity:1;"/>
	<path d="M 913.433594 610.964844 C 947.910156 572.828125 1001.890625 507.683594 1010.941406 463.386719 C 980.699219 502.097656 925.953125 582.84375 913.433594 610.964844 " style=" stroke:none;fill-rule:nonzero;fill:rgb(86.541748%,37.249756%,31.262207%);fill-opacity:1;"/>
	<path d="M 924.992188 671.054688 C 946.945312 640.046875 960.234375 622.425781 970.347656 578.800781 C 944.058594 609.710938 934.667969 637.445312 924.992188 671.054688 " style=" stroke:none;fill-rule:nonzero;fill:rgb(86.541748%,37.249756%,31.262207%);fill-opacity:1;"/>
	<path d="M 866.632812 732.589844 C 888.589844 701.582031 913.433594 655.9375 929.902344 609.710938 C 903.613281 640.625 877.035156 687.714844 866.632812 732.589844 " style=" stroke:none;fill-rule:nonzero;fill:rgb(86.541748%,37.249756%,31.262207%);fill-opacity:1;"/>
	<path d="M 847.125 731.265625 C 869.078125 700.257812 878.910156 668.792969 892.199219 636.144531 C 868.511719 663.59375 853.777344 693.203125 847.125 731.265625 " style=" stroke:none;fill-rule:nonzero;fill:rgb(86.541748%,37.249756%,31.262207%);fill-opacity:1;"/>
	<path d="M 981.398438 581.269531 C 1008.519531 554.667969 1029.429688 522.175781 1042.691406 490.109375 C 1019.171875 519.140625 994.722656 545.003906 981.398438 581.269531 " style=" stroke:none;fill-rule:nonzero;fill:rgb(86.541748%,37.249756%,31.262207%);fill-opacity:1;"/>
	<path d="M 788.4375 339.75 C 825.40625 348.511719 887.238281 355.429688 922.488281 355.539062 C 888.171875 343.839844 826.226562 331.679688 788.4375 339.75 " style=" stroke:none;fill-rule:nonzero;fill:rgb(86.541748%,37.249756%,31.262207%);fill-opacity:1;"/>
	<path d="M 715.828125 297.699219 C 778.230469 291.808594 866.632812 299.421875 901.878906 299.53125 C 860.566406 277.191406 757.1875 274.53125 715.828125 297.699219 " style=" stroke:none;fill-rule:nonzero;fill:rgb(86.541748%,37.249756%,31.262207%);fill-opacity:1;"/>
	<path d="M 970.925781 349.988281 C 997.925781 363.949219 1038.238281 388.128906 1050.949219 401.800781 C 1045.941406 383.890625 1014.261719 354.511719 970.925781 349.988281 " style=" stroke:none;fill-rule:nonzero;fill:rgb(86.541748%,37.249756%,31.262207%);fill-opacity:1;"/>
	<path d="M 788.4375 304.351562 C 825.40625 313.109375 907.078125 332.710938 939.628906 337.140625 C 914.398438 323.601562 858.929688 297.21875 788.4375 304.351562 " style=" stroke:none;fill-rule:nonzero;fill:rgb(86.541748%,37.249756%,31.262207%);fill-opacity:1;"/>
	<path d="M 907.078125 308.789062 C 944.347656 320.140625 1029.371094 361.601562 1053.640625 380.808594 C 1038.410156 344.890625 949.546875 307.828125 907.078125 308.789062 " style=" stroke:none;fill-rule:nonzero;fill:rgb(86.541748%,37.249756%,31.262207%);fill-opacity:1;"/>
	<path d="M 641.582031 579.292969 C 607.105469 541.160156 548.238281 470.039062 557.636719 421.71875 C 565.1875 464.648438 629.0625 551.175781 641.582031 579.292969 " style=" stroke:none;fill-rule:nonzero;fill:rgb(86.541748%,37.249756%,31.262207%);fill-opacity:1;"/>
	<path d="M 687.707031 604.03125 C 653.234375 565.894531 598.148438 507.925781 589.097656 463.625 C 619.335938 502.339844 675.1875 575.910156 687.707031 604.03125 " style=" stroke:none;fill-rule:nonzero;fill:rgb(86.541748%,37.249756%,31.262207%);fill-opacity:1;"/>
	<path d="M 673.9375 667.972656 C 651.980469 636.964844 634.9375 620.136719 624.824219 576.515625 C 651.113281 607.425781 664.261719 634.363281 673.9375 667.972656 " style=" stroke:none;fill-rule:nonzero;fill:rgb(86.541748%,37.249756%,31.262207%);fill-opacity:1;"/>
	<path d="M 606.101562 564.671875 C 584.144531 533.664062 564.753906 519.140625 554.640625 475.515625 C 580.929688 506.429688 591.308594 530.265625 606.101562 564.671875 " style=" stroke:none;fill-rule:nonzero;fill:rgb(86.541748%,37.249756%,31.262207%);fill-opacity:1;"/>
	<path d="M 737.207031 732.589844 C 715.25 701.582031 690.402344 655.9375 673.9375 609.710938 C 700.226562 640.625 726.804688 687.714844 737.207031 732.589844 " style=" stroke:none;fill-rule:nonzero;fill:rgb(86.541748%,37.249756%,31.262207%);fill-opacity:1;"/>
	<path d="M 756.714844 731.265625 C 734.761719 700.257812 724.929688 668.792969 711.640625 636.144531 C 735.328125 663.59375 750.0625 693.203125 756.714844 731.265625 " style=" stroke:none;fill-rule:nonzero;fill:rgb(86.541748%,37.249756%,31.262207%);fill-opacity:1;"/>
	<path d="M 777.914062 341.21875 C 741.542969 352.199219 714.21875 350.359375 679.042969 352.601562 C 712.585938 338.851562 739.710938 335.449219 777.914062 341.21875 " style=" stroke:none;fill-rule:nonzero;fill:rgb(86.541748%,37.249756%,31.262207%);fill-opacity:1;"/>
	<path d="M 629.15625 355.871094 C 602.160156 369.828125 565.601562 388.128906 552.890625 401.800781 C 557.898438 383.890625 585.824219 360.390625 629.15625 355.871094 " style=" stroke:none;fill-rule:nonzero;fill:rgb(86.541748%,37.249756%,31.262207%);fill-opacity:1;"/>
	<path d="M 834.660156 323.859375 C 785.742188 322.308594 701.382812 329.679688 668.835938 334.109375 C 694.0625 320.570312 761.28125 299.199219 834.660156 323.859375 " style=" stroke:none;fill-rule:nonzero;fill:rgb(86.541748%,37.249756%,31.262207%);fill-opacity:1;"/>
	<path d="M 708.738281 309.839844 C 671.765625 318.601562 579.324219 358.511719 555.054688 377.730469 C 570.289062 341.808594 670.949219 301.769531 708.738281 309.839844 " style=" stroke:none;fill-rule:nonzero;fill:rgb(86.541748%,37.249756%,31.262207%);fill-opacity:1;"/>
</svg>
